<svg xmlns="http://www.w3.org/2000/svg" viewBox="0 0 280 280" fill="none" shape-rendering="auto"><metadata xmlns:rdf="http://www.w3.org/1999/02/22-rdf-syntax-ns#" xmlns:xsi="http://www.w3.org/2001/XMLSchema-instance" xmlns:dc="http://purl.org/dc/elements/1.1/" xmlns:dcterms="http://purl.org/dc/terms/"><rdf:RDF><rdf:Description><dc:title>Avataaars</dc:title><dc:creator>Pablo Stanley</dc:creator><dc:source xsi:type="dcterms:URI">https://avataaars.com/</dc:source><dcterms:license xsi:type="dcterms:URI">https://avataaars.com/</dcterms:license><dc:rights>Remix of „Avataaars” (https://avataaars.com/) by „Pablo Stanley”, licensed under „Free for personal and commercial use” (https://avataaars.com/)</dc:rights></rdf:Description></rdf:RDF></metadata><mask id="viewboxMask"><rect width="280" height="280" rx="0" ry="0" x="0" y="0" fill="#fff" /></mask><g mask="url(#viewboxMask)"><g transform="translate(8)"><path d="M132 36a56 56 0 0 0-56 56v6.17A12 12 0 0 0 66 110v14a12 12 0 0 0 10.3 11.88 56.04 56.04 0 0 0 31.7 44.73v18.4h-4a72 72 0 0 0-72 72v9h200v-9a72 72 0 0 0-72-72h-4v-18.39a56.04 56.04 0 0 0 31.7-44.73A12 12 0 0 0 198 124v-14a12 12 0 0 0-10-11.83V92a56 56 0 0 0-56-56Z" fill="#ffdbb4"/><path d="M108 180.61v8a55.79 55.79 0 0 0 24 5.39c8.59 0 16.73-1.93 24-5.39v-8a55.79 55.79 0 0 1-24 5.39 55.79 55.79 0 0 1-24-5.39Z" fill="#000" fill-opacity=".1"/><g transform="translate(0 170)"><path d="M132.5 51.83c18.5 0 33.5-9.62 33.5-21.48 0-.36-.01-.7-.04-1.06A72 72 0 0 1 232 101.04V110H32v-8.95a72 72 0 0 1 67.05-71.83c-.03.37-.05.75-.05 1.13 0 11.86 15 21.48 33.5 21.48Z" fill="#929598"/><path d="M132.5 58.76c21.89 0 39.63-12.05 39.63-26.91 0-.6-.02-1.2-.08-1.8-2-.33-4.03-.59-6.1-.76.04.35.05.7.05 1.06 0 11.86-15 21.48-33.5 21.48S99 42.2 99 30.35c0-.38.02-.76.05-1.13-2.06.14-4.08.36-6.08.67-.07.65-.1 1.3-.1 1.96 0 14.86 17.74 26.91 39.63 26.91Z" fill="#000" fill-opacity=".08"/></g><g transform="translate(78 134)"><path fill-rule="evenodd" clip-rule="evenodd" d="M40.06 27.72C40.7 20.7 46.7 16 54 16c7.34 0 13.36 4.75 13.95 11.85.03.38-.87.67-1.32.45-5.54-2.77-9.75-4.16-12.63-4.16-2.84 0-7 1.36-12.45 4.07-.5.25-1.53-.07-1.5-.49Z" fill="#000" fill-opacity=".7"/></g><g transform="translate(104 122)"><path fill-rule="evenodd" clip-rule="evenodd" d="M16 8c0 4.42 5.37 8 12 8s12-3.58 12-8" fill="#000" fill-opacity=".16"/></g><g transform="translate(76 90)"><path d="M34.5 30.7 29 25.2l-5.5 5.5c-.4.4-1.1.4-1.6 0l-1.6-1.6c-.4-.4-.4-1.1 0-1.6l5.5-5.5-5.5-5.5c-.4-.5-.4-1.2 0-1.6l1.6-1.6c.4-.4 1.1-.4 1.6 0l5.5 5.5 5.5-5.5c.4-.4 1.1-.4 1.6 0l1.6 1.6c.4.4.4 1.1 0 1.6L32.2 22l5.5 5.5c.4.4.4 1.1 0 1.6l-1.6 1.6c-.4.4-1.1.4-1.6 0ZM88.5 30.7 83 25.2l-5.5 5.5c-.4.4-1.1.4-1.6 0l-1.6-1.6c-.4-.4-.4-1.1 0-1.6l5.5-5.5-5.5-5.5c-.4-.5-.4-1.2 0-1.6l1.6-1.6c.4-.4 1.1-.4 1.6 0l5.5 5.5 5.5-5.5c.4-.4 1.1-.4 1.6 0l1.6 1.6c.4.4.4 1.1 0 1.6L86.2 22l5.5 5.5c.4.4.4 1.1 0 1.6l-1.6 1.6c-.4.4-1.1.4-1.6 0Z" fill="#000" fill-opacity=".6"/></g><g transform="translate(76 82)"><path d="m31.23 20.42-.9.4c-5.25 2.09-13.2 1.21-18.05-1.12-.57-.27-.18-1.15.4-1.1 14.92 1.14 24.96-8.15 28.37-14.45.1-.18.41-.2.49-.03 2.3 5.32-4.45 13.98-10.3 16.3ZM80.77 20.42l.9.4c5.25 2.09 13.2 1.21 18.05-1.12.57-.27.18-1.15-.4-1.1-14.92 1.14-24.96-8.15-28.37-14.45-.1-.18-.41-.2-.49-.03-2.3 5.32 4.45 13.98 10.3 16.3Z" fill-rule="evenodd" clip-rule="evenodd" fill="#000" fill-opacity=".6"/></g><g transform="translate(-1)"><path d="M197 168h-2v56.06a9 9 0 1 0 2 0V168ZM71 176h-2v56.06a9 9 0 1 0 2 0V176Z" fill="#F4F4F4"/><circle cx="133" cy="20" r="20" fill="#F4F4F4"/><path d="M93.45 77.53h79.1c6.08 0 9.82 2.93 9.82 9V166c0 30.46 22.63 30.41 22.63 10.92v-73.86C205 68.8 187.77 21 133 21c-54.77 0-72 47.8-72 82.05v73.86c0 19.5 22.63 19.54 22.63-10.92V86.53c0-6.07 3.73-9 9.82-9Z" fill="#3c4f5c"/><path d="M198.67 67H67.33C76.42 42.5 96.26 21 133 21s56.58 21.5 65.67 46Z" fill="#000" fill-opacity=".2"/><path d="M91.2 33.73 102.5 50 115 32H93.66c-.83.56-1.65 1.14-2.46 1.73ZM172.34 32H152l12.5 18 10.95-15.77c-1-.77-2.04-1.51-3.11-2.23ZM133.5 50 121 32h25l-12.5 18Z" fill="#fff" fill-opacity=".5"/><path d="M99 59 86.5 41 74 59h25ZM130 59l-12.5-18L105 59h25ZM148.5 41 161 59h-25l12.5-18ZM192 59l-12.5-18L167 59h25Z" fill="#000" fill-opacity=".5"/></g><g transform="translate(49 72)"></g><g transform="translate(62 42)"><path d="M71 58.11c-11.04 0-12.63-9.08-35.33-10.37C13 46.72 5.82 53.44 5.77 58.11c.04 4.3-1.12 15.45 13.6 28.52 14.77 15.51 29.9 10.25 35.32 5.18 5.45-2.34 11.65-23.35 16.3-23.33 4.67.02 10.87 21 16.32 23.33 5.42 5.07 20.55 10.33 35.33-5.18 14.71-13.07 13.55-24.23 13.58-28.52-.03-4.66-7.2-11.4-29.9-10.37C83.63 49.03 82.05 58.11 71 58.11Z" fill="#000" fill-opacity=".1"/><path d="M71 56.11c-11.04 0-12.63-9.08-35.33-10.37C13 44.72 5.82 51.44 5.77 56.11c.04 4.3-1.12 15.45 13.6 28.52 14.77 15.51 29.9 10.25 35.32 5.18 5.45-2.34 11.65-23.35 16.3-23.33 4.67.02 10.87 21 16.32 23.33 5.42 5.07 20.55 10.33 35.33-5.18 14.71-13.07 13.55-24.23 13.58-28.52-.03-4.66-7.2-11.4-29.9-10.37C83.63 47.03 82.05 56.11 71 56.11Z" fill="#b1e2ff"/><path d="M32.95 50.93c14.27-.29 27.56 7.9 27.18 15.55-.22 5.05-2.93 22.83-19.02 23.33-16.1.5-24.81-17.79-24.46-25.92.2-3.51 2.05-12.67 16.3-12.96ZM109.05 50.93c-14.27-.29-27.56 7.9-27.18 15.55.22 5.05 2.93 22.83 19.02 23.33 16.1.5 24.81-17.79 24.46-25.92-.2-3.51-2.05-12.67-16.3-12.96Z" fill="#2F383B"/></g></g></g></svg>